<svg width="736" height="54" viewBox="0 0 736 54" fill="none" xmlns="http://www.w3.org/2000/svg">
<rect x="0.5" y="0.5" width="597" height="53" rx="7.5" fill="#262626"/>
<rect x="0.5" y="0.5" width="597" height="53" rx="7.5" stroke="#0D0D0D"/>
<path d="M21.568 37C20.736 37 20.0213 36.8507 19.424 36.552C18.8373 36.264 18.3573 35.8373 17.984 35.272C17.6107 34.7173 17.3333 34.0347 17.152 33.224C16.9707 32.4133 16.88 31.496 16.88 30.472C16.88 29.704 16.9387 28.952 17.056 28.216C17.184 27.48 17.3547 26.792 17.568 26.152C17.792 25.5013 18.0427 24.9253 18.32 24.424H19.728C19.4507 24.9253 19.2 25.5013 18.976 26.152C18.7627 26.8027 18.592 27.496 18.464 28.232C18.3467 28.9573 18.288 29.6933 18.288 30.44C18.288 31.5493 18.3893 32.504 18.592 33.304C18.8053 34.1147 19.152 34.7333 19.632 35.16C20.1227 35.5973 20.7733 35.816 21.584 35.816C22.4693 35.816 23.1467 35.592 23.616 35.144C24.096 34.696 24.336 34.0187 24.336 33.112C24.336 32.664 24.2453 32.248 24.064 31.864C23.8933 31.48 23.616 31.1707 23.232 30.936C22.8587 30.6907 22.368 30.568 21.76 30.568H21.04V29.4H22.096C22.5547 29.4 22.9227 29.3413 23.2 29.224C23.4773 29.1067 23.68 28.9467 23.808 28.744C23.9467 28.5307 24.016 28.28 24.016 27.992C24.016 27.6187 23.9413 27.3147 23.792 27.08C23.6533 26.8453 23.4773 26.6533 23.264 26.504C22.9333 26.2587 22.64 25.992 22.384 25.704C22.128 25.4053 22 24.9787 22 24.424H23.408C23.4293 24.7013 23.536 24.9413 23.728 25.144C23.92 25.3467 24.144 25.5493 24.4 25.752C24.6987 25.9867 24.9493 26.2587 25.152 26.568C25.3653 26.8773 25.472 27.2987 25.472 27.832C25.472 28.4827 25.2693 28.9627 24.864 29.272C24.4693 29.5813 23.9733 29.8107 23.376 29.96V30.024C23.7813 30.0987 24.1653 30.264 24.528 30.52C24.9013 30.7653 25.2053 31.1173 25.44 31.576C25.6747 32.024 25.792 32.5947 25.792 33.288C25.792 34.0027 25.6267 34.6373 25.296 35.192C24.9653 35.7573 24.4853 36.2 23.856 36.52C23.2267 36.84 22.464 37 21.568 37ZM31.4295 33.16C30.2028 33.16 29.2642 32.792 28.6135 32.056C27.9628 31.3093 27.6375 30.2 27.6375 28.728V20.84H29.0455V24.264C29.0455 24.424 29.0348 24.6427 29.0135 24.92C28.9922 25.1867 28.9708 25.3893 28.9495 25.528H29.0455C29.2268 25.2933 29.4348 25.08 29.6695 24.888C29.9148 24.696 30.2028 24.5467 30.5335 24.44C30.8748 24.3227 31.2642 24.264 31.7015 24.264C32.7682 24.264 33.6215 24.6427 34.2615 25.4C34.9122 26.1467 35.2375 27.256 35.2375 28.728C35.2375 29.7093 35.0775 30.5307 34.7575 31.192C34.4375 31.8427 33.9895 32.3333 33.4135 32.664C32.8482 32.9947 32.1868 33.16 31.4295 33.16ZM31.4295 31.992C32.2295 31.992 32.8215 31.7093 33.2055 31.144C33.5895 30.5787 33.7815 29.784 33.7815 28.76C33.7815 27.7467 33.5895 26.9413 33.2055 26.344C32.8322 25.736 32.2668 25.432 31.5095 25.432C30.5602 25.432 29.9095 25.72 29.5575 26.296C29.2055 26.8613 29.0295 27.6773 29.0295 28.744V29C29.0295 29.9067 29.2108 30.632 29.5735 31.176C29.9362 31.72 30.5548 31.992 31.4295 31.992ZM37.981 33C37.7677 32.4987 37.5863 32.0187 37.437 31.56C37.2877 31.1013 37.1757 30.632 37.101 30.152C37.037 29.6613 37.005 29.1387 37.005 28.584C37.005 27.72 37.1277 26.968 37.373 26.328C37.6183 25.6773 37.981 25.1707 38.461 24.808C38.941 24.4453 39.5383 24.264 40.253 24.264C40.8503 24.264 41.3303 24.4027 41.693 24.68C42.0663 24.9467 42.3383 25.3147 42.509 25.784H42.589C42.7703 25.3147 43.053 24.9467 43.437 24.68C43.821 24.4027 44.2957 24.264 44.861 24.264C45.5757 24.264 46.173 24.4453 46.653 24.808C47.133 25.1707 47.4957 25.6773 47.741 26.328C47.9863 26.968 48.109 27.72 48.109 28.584C48.109 29.1387 48.0717 29.6613 47.997 30.152C47.933 30.632 47.8263 31.1013 47.677 31.56C47.5383 32.0187 47.357 32.4987 47.133 33H45.693C46.0343 32.2427 46.2797 31.528 46.429 30.856C46.589 30.1733 46.669 29.4107 46.669 28.568C46.669 27.8747 46.5943 27.2987 46.445 26.84C46.2957 26.3707 46.077 26.0187 45.789 25.784C45.5117 25.5493 45.165 25.432 44.749 25.432C44.269 25.432 43.8957 25.6133 43.629 25.976C43.3623 26.3387 43.229 26.8507 43.229 27.512V30.088H41.885V27.512C41.885 26.9147 41.7623 26.4187 41.517 26.024C41.2717 25.6293 40.8823 25.432 40.349 25.432C39.741 25.432 39.2717 25.6987 38.941 26.232C38.6103 26.7547 38.445 27.5333 38.445 28.568C38.445 29.1333 38.477 29.656 38.541 30.136C38.6157 30.616 38.7223 31.0907 38.861 31.56C39.0103 32.0187 39.197 32.4987 39.421 33H37.981ZM53.4841 37C52.8975 37 52.3641 36.9093 51.8841 36.728C51.4148 36.5573 51.0095 36.3173 50.6681 36.008C50.3375 35.6987 50.0815 35.3307 49.9001 34.904C49.7188 34.4773 49.6281 34.0187 49.6281 33.528C49.6281 33.2187 49.6548 32.9307 49.7081 32.664C49.7721 32.3867 49.8415 32.1573 49.9161 31.976H51.2601C51.2068 32.1467 51.1535 32.3707 51.1001 32.648C51.0575 32.9147 51.0361 33.1653 51.0361 33.4C51.0361 33.816 51.1215 34.2053 51.2921 34.568C51.4628 34.9413 51.7295 35.2453 52.0921 35.48C52.4548 35.7147 52.9188 35.832 53.4841 35.832C54.0281 35.832 54.4761 35.7093 54.8281 35.464C55.1801 35.2293 55.4415 34.9093 55.6121 34.504C55.7828 34.0987 55.8681 33.6507 55.8681 33.16C55.8681 32.68 55.7775 32.2533 55.5961 31.88C55.4255 31.496 55.1535 31.1973 54.7801 30.984C54.4068 30.7707 53.9321 30.664 53.3561 30.664H52.7321V29.496H53.4681C54.2255 29.496 54.7695 29.288 55.1001 28.872C55.4308 28.4453 55.5961 27.944 55.5961 27.368C55.5961 27.016 55.5161 26.696 55.3561 26.408C55.2068 26.1093 54.9828 25.8747 54.6841 25.704C54.3855 25.5227 54.0175 25.432 53.5801 25.432C53.1321 25.432 52.7588 25.512 52.4601 25.672C52.1615 25.8213 51.9321 26.0347 51.7721 26.312C51.6228 26.5893 51.5481 26.9253 51.5481 27.32C51.5481 27.4587 51.5588 27.6027 51.5801 27.752C51.6015 27.9013 51.6335 28.0613 51.6761 28.232H50.3001C50.2468 28.0507 50.2041 27.8747 50.1721 27.704C50.1508 27.5333 50.1401 27.368 50.1401 27.208C50.1401 26.6427 50.2841 26.1413 50.5721 25.704C50.8708 25.256 51.2761 24.904 51.7881 24.648C52.3108 24.392 52.9081 24.264 53.5801 24.264C54.2521 24.264 54.8441 24.3973 55.3561 24.664C55.8788 24.9307 56.2841 25.2933 56.5721 25.752C56.8601 26.2 57.0041 26.7067 57.0041 27.272C57.0041 28.0187 56.7961 28.632 56.3801 29.112C55.9748 29.5813 55.4361 29.8907 54.7641 30.04V30.104C55.2121 30.168 55.6281 30.328 56.0121 30.584C56.4068 30.84 56.7215 31.1867 56.9561 31.624C57.2015 32.0613 57.3241 32.5947 57.3241 33.224C57.3241 33.9813 57.1641 34.6427 56.8441 35.208C56.5241 35.784 56.0761 36.2267 55.5001 36.536C54.9348 36.8453 54.2628 37 53.4841 37ZM59.7928 33C59.5794 32.4987 59.3981 32.0187 59.2488 31.56C59.1101 31.1013 59.0088 30.632 58.9448 30.152C58.8808 29.6613 58.8488 29.1387 58.8488 28.584V27.976C58.8488 26.6533 59.0034 25.5387 59.3128 24.632C59.6221 23.7147 60.0914 22.9893 60.7208 22.456C61.3501 21.912 62.1394 21.5387 63.0888 21.336C63.6861 21.208 64.2834 21.0907 64.8808 20.984C65.4781 20.8773 66.0648 20.776 66.6408 20.68L66.8808 21.912C66.6034 21.9547 66.2994 22.0027 65.9688 22.056C65.6488 22.0987 65.3288 22.1467 65.0088 22.2C64.6888 22.2533 64.3848 22.3067 64.0968 22.36C63.8194 22.4027 63.5741 22.4507 63.3608 22.504C62.9234 22.6 62.4968 22.7493 62.0807 22.952C61.6648 23.144 61.2914 23.4267 60.9608 23.8C60.6408 24.1733 60.3794 24.6853 60.1768 25.336H60.2248C60.4381 25.0373 60.6461 24.8133 60.8488 24.664C61.0621 24.504 61.2754 24.3973 61.4888 24.344C61.7128 24.2907 61.9368 24.264 62.1608 24.264C62.7048 24.264 63.1581 24.4027 63.5208 24.68C63.8834 24.9467 64.1501 25.3147 64.3208 25.784H64.4008C64.5821 25.3147 64.8648 24.9467 65.2488 24.68C65.6328 24.4027 66.1074 24.264 66.6728 24.264C67.3874 24.264 67.9848 24.4453 68.4648 24.808C68.9448 25.1707 69.3074 25.6773 69.5528 26.328C69.7981 26.968 69.9208 27.72 69.9208 28.584C69.9208 29.1387 69.8834 29.6613 69.8088 30.152C69.7448 30.632 69.6381 31.1013 69.4888 31.56C69.3501 32.0187 69.1688 32.4987 68.9448 33H67.5048C67.8461 32.2427 68.0914 31.528 68.2408 30.856C68.4008 30.1733 68.4808 29.4107 68.4808 28.568C68.4808 27.8747 68.4061 27.2987 68.2568 26.84C68.1074 26.3707 67.8888 26.0187 67.6008 25.784C67.3234 25.5493 66.9768 25.432 66.5608 25.432C66.0808 25.432 65.7074 25.6133 65.4408 25.976C65.1741 26.3387 65.0408 26.8507 65.0408 27.512V30.088H63.6968V27.512C63.6968 26.9147 63.5741 26.4187 63.3288 26.024C63.0834 25.6293 62.6941 25.432 62.1608 25.432C61.5528 25.432 61.0834 25.6987 60.7528 26.232C60.4221 26.7547 60.2568 27.5333 60.2568 28.568C60.2568 29.1333 60.2888 29.656 60.3528 30.136C60.4274 30.616 60.5341 31.0907 60.6728 31.56C60.8221 32.0187 61.0088 32.4987 61.2328 33H59.7928ZM75.1366 37C74.5926 37 74.0913 36.9093 73.6326 36.728C73.1846 36.5573 72.7953 36.3013 72.4646 35.96C72.134 35.6293 71.878 35.2293 71.6966 34.76C71.526 34.3013 71.4406 33.784 71.4406 33.208C71.4406 32.8987 71.4673 32.6107 71.5206 32.344C71.5846 32.0667 71.654 31.8373 71.7286 31.656H73.0726C73.0193 31.8267 72.966 32.0507 72.9126 32.328C72.87 32.5947 72.8486 32.8453 72.8486 33.08C72.8486 33.6027 72.9286 34.072 73.0886 34.488C73.2593 34.904 73.5153 35.2293 73.8566 35.464C74.198 35.7093 74.6246 35.832 75.1366 35.832C75.6913 35.832 76.134 35.7093 76.4646 35.464C76.806 35.2187 77.0513 34.872 77.2006 34.424C77.3606 33.976 77.4406 33.448 77.4406 32.84V27.976C77.4406 27.1653 77.2753 26.5413 76.9446 26.104C76.614 25.656 76.102 25.432 75.4086 25.432C74.9926 25.432 74.6246 25.512 74.3046 25.672C73.9953 25.832 73.75 26.0667 73.5686 26.376C73.398 26.6747 73.3126 27.0533 73.3126 27.512C73.3126 27.7467 73.3233 27.9707 73.3446 28.184C73.3766 28.3867 73.414 28.5627 73.4566 28.712H72.1126C72.07 28.584 72.022 28.4133 71.9686 28.2C71.926 27.976 71.9046 27.7467 71.9046 27.512C71.9046 26.7973 72.0593 26.2 72.3686 25.72C72.6886 25.24 73.11 24.8773 73.6326 24.632C74.166 24.3867 74.758 24.264 75.4086 24.264C76.102 24.264 76.7046 24.408 77.2166 24.696C77.7393 24.984 78.1393 25.4 78.4166 25.944C78.7046 26.4773 78.8486 27.1333 78.8486 27.912V32.904C78.8486 33.768 78.6993 34.504 78.4006 35.112C78.1126 35.7307 77.6913 36.2 77.1366 36.52C76.5926 36.84 75.926 37 75.1366 37ZM85.8069 24.344C86.4149 24.4613 86.9482 24.712 87.4069 25.096C87.8655 25.4693 88.2229 25.96 88.4789 26.568C88.7349 27.1653 88.8629 27.8747 88.8629 28.696C88.8629 29.4107 88.7669 30.0453 88.5749 30.6C88.3935 31.144 88.1269 31.608 87.7749 31.992C87.4335 32.376 87.0122 32.6693 86.5109 32.872C86.0202 33.064 85.4709 33.16 84.8629 33.16C84.2975 33.16 83.7749 33.064 83.2949 32.872C82.8149 32.6693 82.3989 32.376 82.0469 31.992C81.6949 31.608 81.4175 31.144 81.2149 30.6C81.0229 30.0453 80.9269 29.4107 80.9269 28.696C80.9269 27.8107 81.0655 27.0533 81.3429 26.424C81.6309 25.784 82.0415 25.2827 82.5749 24.92C83.1082 24.5573 83.7375 24.344 84.4629 24.28C84.5162 24.184 84.5589 24.072 84.5909 23.944C84.6335 23.8053 84.6549 23.6507 84.6549 23.48C84.6549 23.2773 84.6015 23.112 84.4949 22.984C84.3989 22.8453 84.2762 22.7173 84.1269 22.6C83.9029 22.4187 83.6842 22.2053 83.4709 21.96C83.2575 21.704 83.1509 21.3307 83.1509 20.84H84.5589C84.5589 21.0853 84.6175 21.2933 84.7349 21.464C84.8522 21.6347 84.9962 21.7947 85.1669 21.944C85.3802 22.1253 85.5775 22.328 85.7589 22.552C85.9402 22.7653 86.0309 23.0427 86.0309 23.384C86.0309 23.576 86.0095 23.752 85.9669 23.912C85.9349 24.0613 85.8815 24.2053 85.8069 24.344ZM84.8949 31.992C85.4709 31.992 85.9455 31.8587 86.3189 31.592C86.6922 31.3253 86.9642 30.9467 87.1349 30.456C87.3162 29.9547 87.4069 29.368 87.4069 28.696C87.4069 28.0133 87.3162 27.432 87.1349 26.952C86.9535 26.472 86.6762 26.104 86.3029 25.848C85.9402 25.5813 85.4655 25.448 84.8789 25.448C84.0042 25.448 83.3695 25.736 82.9749 26.312C82.5802 26.888 82.3829 27.6827 82.3829 28.696C82.3829 29.368 82.4682 29.9547 82.6389 30.456C82.8202 30.9467 83.0975 31.3253 83.4709 31.592C83.8442 31.8587 84.3189 31.992 84.8949 31.992ZM91.606 33C91.3927 32.4987 91.2113 32.0187 91.062 31.56C90.9127 31.1013 90.8007 30.632 90.726 30.152C90.662 29.6613 90.63 29.1387 90.63 28.584C90.63 27.7093 90.7687 26.952 91.046 26.312C91.334 25.6613 91.7553 25.16 92.31 24.808C92.8647 24.4453 93.542 24.264 94.342 24.264C95.1633 24.264 95.846 24.4453 96.39 24.808C96.9447 25.16 97.3607 25.6613 97.638 26.312C97.9153 26.952 98.054 27.7093 98.054 28.584C98.054 29.1387 98.0167 29.6613 97.942 30.152C97.878 30.632 97.7713 31.1013 97.622 31.56C97.4833 32.0187 97.302 32.4987 97.078 33H95.638C95.9793 32.2427 96.2247 31.528 96.374 30.856C96.534 30.1733 96.614 29.4107 96.614 28.568C96.614 27.8747 96.5233 27.2987 96.342 26.84C96.1607 26.3707 95.8993 26.0187 95.558 25.784C95.2273 25.5493 94.822 25.432 94.342 25.432C93.862 25.432 93.4513 25.5493 93.11 25.784C92.7793 26.0187 92.5233 26.3707 92.342 26.84C92.1607 27.2987 92.07 27.8747 92.07 28.568C92.07 29.1333 92.102 29.656 92.166 30.136C92.2407 30.616 92.3473 31.0907 92.486 31.56C92.6353 32.0187 92.822 32.4987 93.046 33H91.606ZM103.93 33.16C102.703 33.16 101.764 32.7973 101.114 32.072C100.463 31.336 100.138 30.264 100.138 28.856V20.84H101.546V29C101.546 29.9067 101.732 30.632 102.106 31.176C102.479 31.72 103.087 31.992 103.93 31.992C104.463 31.992 104.9 31.8747 105.242 31.64C105.594 31.3947 105.855 31.0693 106.026 30.664C106.196 30.2587 106.282 29.8053 106.282 29.304C106.282 28.8667 106.207 28.488 106.058 28.168C105.919 27.848 105.743 27.5387 105.53 27.24C105.274 26.8667 105.034 26.4667 104.81 26.04C104.596 25.6133 104.49 25.0747 104.49 24.424H105.898C105.898 24.904 105.994 25.3253 106.186 25.688C106.378 26.04 106.602 26.3973 106.858 26.76C107.103 27.1013 107.311 27.48 107.482 27.896C107.652 28.3013 107.738 28.7867 107.738 29.352C107.738 30.12 107.578 30.792 107.258 31.368C106.938 31.9333 106.49 32.376 105.914 32.696C105.348 33.0053 104.687 33.16 103.93 33.16ZM114.605 33C114.392 32.4987 114.211 32.0187 114.061 31.56C113.923 31.1013 113.821 30.632 113.757 30.152C113.693 29.6613 113.661 29.1387 113.661 28.584V27.976C113.661 26.6533 113.816 25.5387 114.125 24.632C114.435 23.7147 114.904 22.9893 115.533 22.456C116.163 21.912 116.952 21.5387 117.901 21.336C118.499 21.208 119.096 21.0907 119.693 20.984C120.291 20.8773 120.877 20.776 121.453 20.68L121.693 21.912C121.416 21.9547 121.112 22.0027 120.781 22.056C120.461 22.0987 120.141 22.1467 119.821 22.2C119.501 22.2533 119.197 22.3067 118.909 22.36C118.632 22.4027 118.387 22.4507 118.173 22.504C117.736 22.6 117.309 22.7493 116.893 22.952C116.477 23.144 116.104 23.4267 115.773 23.8C115.453 24.1733 115.192 24.6853 114.989 25.336H115.037C115.251 25.0373 115.459 24.8133 115.661 24.664C115.875 24.504 116.088 24.3973 116.301 24.344C116.525 24.2907 116.749 24.264 116.973 24.264C117.517 24.264 117.971 24.4027 118.333 24.68C118.696 24.9467 118.963 25.3147 119.133 25.784H119.213C119.395 25.3147 119.677 24.9467 120.061 24.68C120.445 24.4027 120.92 24.264 121.485 24.264C122.2 24.264 122.797 24.4453 123.277 24.808C123.757 25.1707 124.12 25.6773 124.365 26.328C124.611 26.968 124.733 27.72 124.733 28.584C124.733 29.1387 124.696 29.6613 124.621 30.152C124.557 30.632 124.451 31.1013 124.301 31.56C124.163 32.0187 123.981 32.4987 123.757 33H122.317C122.659 32.2427 122.904 31.528 123.053 30.856C123.213 30.1733 123.293 29.4107 123.293 28.568C123.293 27.8747 123.219 27.2987 123.069 26.84C122.92 26.3707 122.701 26.0187 122.413 25.784C122.136 25.5493 121.789 25.432 121.373 25.432C120.893 25.432 120.52 25.6133 120.253 25.976C119.987 26.3387 119.853 26.8507 119.853 27.512V30.088H118.509V27.512C118.509 26.9147 118.387 26.4187 118.141 26.024C117.896 25.6293 117.507 25.432 116.973 25.432C116.365 25.432 115.896 25.6987 115.565 26.232C115.235 26.7547 115.069 27.5333 115.069 28.568C115.069 29.1333 115.101 29.656 115.165 30.136C115.24 30.616 115.347 31.0907 115.485 31.56C115.635 32.0187 115.821 32.4987 116.045 33H114.605ZM129.961 33.16C129.3 33.16 128.697 33.0373 128.153 32.792C127.62 32.5467 127.193 32.184 126.873 31.704C126.564 31.224 126.409 30.6267 126.409 29.912C126.409 29.6773 126.431 29.4533 126.473 29.24C126.527 29.016 126.575 28.84 126.617 28.712H127.961C127.919 28.8507 127.881 29.0267 127.849 29.24C127.828 29.4427 127.817 29.6667 127.817 29.912C127.817 30.36 127.903 30.7387 128.073 31.048C128.255 31.3573 128.505 31.592 128.825 31.752C129.156 31.912 129.535 31.992 129.961 31.992C130.399 31.992 130.772 31.912 131.081 31.752C131.391 31.592 131.631 31.352 131.801 31.032C131.972 30.712 132.057 30.312 132.057 29.832C132.057 29.2773 131.94 28.8293 131.705 28.488C131.471 28.136 131.199 27.8107 130.889 27.512C130.633 27.256 130.377 26.9893 130.121 26.712C129.876 26.424 129.668 26.0987 129.497 25.736C129.327 25.3627 129.241 24.9253 129.241 24.424H130.649C130.649 24.8827 130.772 25.288 131.017 25.64C131.273 25.9813 131.567 26.3173 131.897 26.648C132.164 26.904 132.42 27.1813 132.665 27.48C132.911 27.7787 133.113 28.12 133.273 28.504C133.433 28.8773 133.513 29.32 133.513 29.832C133.513 30.4933 133.359 31.0747 133.049 31.576C132.74 32.0773 132.319 32.4667 131.785 32.744C131.252 33.0213 130.644 33.16 129.961 33.16ZM143.539 33.16C142.312 33.16 141.374 32.792 140.723 32.056C140.072 31.3093 139.747 30.2 139.747 28.728V23.752C139.747 23.0587 139.875 22.4987 140.131 22.072C140.387 21.6453 140.728 21.336 141.155 21.144C141.592 20.9413 142.083 20.84 142.627 20.84H146.403V22.024H142.819C142.307 22.024 141.902 22.152 141.603 22.408C141.304 22.6533 141.155 23.0853 141.155 23.704V24.264C141.155 24.424 141.144 24.6427 141.123 24.92C141.102 25.1867 141.08 25.3893 141.059 25.528H141.155C141.336 25.2933 141.544 25.08 141.779 24.888C142.024 24.696 142.312 24.5467 142.643 24.44C142.984 24.3227 143.374 24.264 143.811 24.264C144.878 24.264 145.731 24.6427 146.371 25.4C147.022 26.1467 147.347 27.256 147.347 28.728C147.347 29.7093 147.187 30.5307 146.867 31.192C146.547 31.8427 146.099 32.3333 145.523 32.664C144.958 32.9947 144.296 33.16 143.539 33.16ZM143.539 31.992C144.339 31.992 144.931 31.7093 145.315 31.144C145.699 30.5787 145.891 29.784 145.891 28.76C145.891 27.7467 145.699 26.9413 145.315 26.344C144.942 25.736 144.376 25.432 143.619 25.432C142.99 25.432 142.494 25.56 142.131 25.816C141.768 26.0613 141.512 26.4187 141.363 26.888C141.214 27.3467 141.139 27.9013 141.139 28.552V29C141.139 29.9067 141.32 30.632 141.683 31.176C142.046 31.72 142.664 31.992 143.539 31.992ZM152.586 33.16C151.925 33.16 151.322 33.0373 150.778 32.792C150.245 32.5467 149.818 32.184 149.498 31.704C149.189 31.224 149.034 30.6267 149.034 29.912C149.034 29.6773 149.056 29.4533 149.098 29.24C149.152 29.016 149.2 28.84 149.242 28.712H150.586C150.544 28.8507 150.506 29.0267 150.474 29.24C150.453 29.4427 150.442 29.6667 150.442 29.912C150.442 30.36 150.528 30.7387 150.698 31.048C150.88 31.3573 151.13 31.592 151.45 31.752C151.781 31.912 152.16 31.992 152.586 31.992C153.024 31.992 153.397 31.912 153.706 31.752C154.016 31.592 154.256 31.352 154.426 31.032C154.597 30.712 154.682 30.312 154.682 29.832C154.682 29.2773 154.565 28.8293 154.33 28.488C154.096 28.136 153.824 27.8107 153.514 27.512C153.258 27.256 153.002 26.9893 152.746 26.712C152.501 26.424 152.293 26.0987 152.122 25.736C151.952 25.3627 151.866 24.9253 151.866 24.424H153.274C153.274 24.8827 153.397 25.288 153.642 25.64C153.898 25.9813 154.192 26.3173 154.522 26.648C154.789 26.904 155.045 27.1813 155.29 27.48C155.536 27.7787 155.738 28.12 155.898 28.504C156.058 28.8773 156.138 29.32 156.138 29.832C156.138 30.4933 155.984 31.0747 155.674 31.576C155.365 32.0773 154.944 32.4667 154.41 32.744C153.877 33.0213 153.269 33.16 152.586 33.16ZM162.008 33.16C161.197 33.16 160.509 33 159.944 32.68C159.378 32.3493 158.946 31.8693 158.648 31.24C158.36 30.6 158.216 29.816 158.216 28.888V23.352C158.216 22.744 158.333 22.2427 158.568 21.848C158.802 21.4533 159.112 21.16 159.496 20.968C159.89 20.776 160.317 20.68 160.776 20.68C161.149 20.68 161.522 20.7547 161.896 20.904C162.269 21.0533 162.557 21.368 162.76 21.848H162.808C163.01 21.368 163.272 21.0533 163.592 20.904C163.912 20.7547 164.237 20.68 164.568 20.68C164.877 20.68 165.154 20.712 165.4 20.776C165.645 20.84 165.869 20.9147 166.072 21L165.72 22.072C165.549 22.0187 165.368 21.9653 165.176 21.912C164.984 21.8587 164.786 21.832 164.584 21.832C164.296 21.832 164.034 21.928 163.8 22.12C163.576 22.3013 163.464 22.5733 163.464 22.936V23.704H162.104V22.936C162.104 22.5947 161.992 22.3227 161.768 22.12C161.544 21.9067 161.25 21.8 160.888 21.8C160.632 21.8 160.408 21.864 160.216 21.992C160.024 22.1093 159.874 22.2853 159.768 22.52C159.672 22.7547 159.624 23.0427 159.624 23.384V24.92C159.624 25.0907 159.613 25.288 159.592 25.512C159.57 25.7253 159.549 25.8907 159.528 26.008H159.624C159.805 25.7733 160.013 25.56 160.248 25.368C160.493 25.176 160.781 25.0267 161.112 24.92C161.453 24.8027 161.842 24.744 162.28 24.744C162.994 24.744 163.613 24.9093 164.136 25.24C164.669 25.56 165.08 26.0293 165.368 26.648C165.666 27.2667 165.816 28.0133 165.816 28.888C165.816 29.816 165.656 30.6 165.336 31.24C165.016 31.8693 164.568 32.3493 163.992 32.68C163.426 33 162.765 33.16 162.008 33.16ZM162.008 31.992C162.541 31.992 162.978 31.8693 163.32 31.624C163.672 31.368 163.933 31.0107 164.104 30.552C164.274 30.0933 164.36 29.5493 164.36 28.92C164.36 28.344 164.274 27.832 164.104 27.384C163.944 26.9253 163.693 26.568 163.352 26.312C163.021 26.0453 162.6 25.912 162.088 25.912C161.458 25.912 160.962 26.0347 160.6 26.28C160.237 26.5253 159.981 26.872 159.832 27.32C159.682 27.768 159.608 28.296 159.608 28.904V29.16C159.608 29.9813 159.789 30.6587 160.152 31.192C160.514 31.7253 161.133 31.992 162.008 31.992ZM168.559 33C168.346 32.4987 168.164 32.0187 168.015 31.56C167.866 31.1013 167.754 30.632 167.679 30.152C167.615 29.6613 167.583 29.1387 167.583 28.584C167.583 27.7093 167.722 26.952 167.999 26.312C168.287 25.6613 168.708 25.16 169.263 24.808C169.818 24.4453 170.495 24.264 171.295 24.264C172.116 24.264 172.799 24.4453 173.343 24.808C173.898 25.16 174.314 25.6613 174.591 26.312C174.868 26.952 175.007 27.7093 175.007 28.584C175.007 29.1387 174.97 29.6613 174.895 30.152C174.831 30.632 174.724 31.1013 174.575 31.56C174.436 32.0187 174.255 32.4987 174.031 33H172.591C172.932 32.2427 173.178 31.528 173.327 30.856C173.487 30.1733 173.567 29.4107 173.567 28.568C173.567 27.8747 173.476 27.2987 173.295 26.84C173.114 26.3707 172.852 26.0187 172.511 25.784C172.18 25.5493 171.775 25.432 171.295 25.432C170.815 25.432 170.404 25.5493 170.063 25.784C169.732 26.0187 169.476 26.3707 169.295 26.84C169.114 27.2987 169.023 27.8747 169.023 28.568C169.023 29.1333 169.055 29.656 169.119 30.136C169.194 30.616 169.3 31.0907 169.439 31.56C169.588 32.0187 169.775 32.4987 169.999 33H168.559ZM187.059 37C186.813 36.5947 186.515 36.2373 186.163 35.928C185.821 35.6293 185.443 35.3787 185.027 35.176C184.621 34.9733 184.189 34.8187 183.731 34.712C183.272 34.6053 182.803 34.552 182.323 34.552C181.8 34.552 181.288 34.6213 180.787 34.76C180.285 34.9093 179.8 35.1173 179.331 35.384L178.771 34.36C178.995 34.2533 179.224 34.152 179.459 34.056C179.704 33.9707 179.955 33.896 180.211 33.832C180.467 33.7787 180.717 33.7467 180.963 33.736V33.688C180.387 33.5067 179.843 33.2667 179.331 32.968C178.829 32.6693 178.387 32.3013 178.003 31.864C177.619 31.4267 177.315 30.9147 177.091 30.328C176.877 29.7413 176.771 29.064 176.771 28.296C176.771 27.4853 176.888 26.7813 177.123 26.184C177.368 25.576 177.725 25.1067 178.195 24.776C178.675 24.4347 179.256 24.264 179.939 24.264C180.536 24.264 181.016 24.4027 181.379 24.68C181.752 24.9467 182.024 25.3147 182.195 25.784H182.275C182.456 25.3147 182.739 24.9467 183.123 24.68C183.517 24.4027 184.008 24.264 184.595 24.264C185.224 24.264 185.725 24.4027 186.099 24.68C186.472 24.9467 186.744 25.3147 186.915 25.784H186.995C187.176 25.3147 187.459 24.9467 187.843 24.68C188.227 24.4027 188.701 24.264 189.267 24.264C189.96 24.264 190.541 24.4453 191.011 24.808C191.48 25.1707 191.832 25.6773 192.067 26.328C192.312 26.968 192.435 27.72 192.435 28.584C192.435 29.2667 192.36 29.9013 192.211 30.488C192.072 31.0747 191.853 31.6507 191.555 32.216L190.339 31.768C190.584 31.2453 190.755 30.7387 190.851 30.248C190.947 29.7467 190.995 29.1867 190.995 28.568C190.995 27.5333 190.829 26.7547 190.499 26.232C190.179 25.6987 189.731 25.432 189.155 25.432C188.675 25.432 188.301 25.6133 188.035 25.976C187.768 26.3387 187.635 26.8507 187.635 27.512V30.088H186.291V27.512C186.291 26.9147 186.157 26.4187 185.891 26.024C185.635 25.6293 185.203 25.432 184.595 25.432C184.04 25.432 183.619 25.6133 183.331 25.976C183.053 26.3387 182.915 26.8507 182.915 27.512V30.088H181.571V27.512C181.571 26.9147 181.448 26.4187 181.203 26.024C180.957 25.6293 180.568 25.432 180.035 25.432C179.469 25.432 179.021 25.6667 178.691 26.136C178.371 26.6053 178.211 27.3253 178.211 28.296C178.211 29.0427 178.328 29.6933 178.563 30.248C178.808 30.792 179.139 31.256 179.555 31.64C179.971 32.024 180.44 32.3387 180.963 32.584C181.496 32.8187 182.051 33 182.627 33.128C183.352 33.2773 184.072 33.48 184.787 33.736C185.512 34.0027 186.168 34.3493 186.755 34.776C187.352 35.2133 187.811 35.7627 188.131 36.424L187.059 37ZM195.169 33C194.955 32.4987 194.774 32.0187 194.625 31.56C194.475 31.1013 194.363 30.632 194.289 30.152C194.225 29.6613 194.193 29.1387 194.193 28.584C194.193 27.7093 194.331 26.952 194.609 26.312C194.897 25.6613 195.318 25.16 195.873 24.808C196.427 24.4453 197.105 24.264 197.905 24.264C198.726 24.264 199.409 24.4453 199.953 24.808C200.507 25.16 200.923 25.6613 201.201 26.312C201.478 26.952 201.617 27.7093 201.617 28.584C201.617 29.1387 201.579 29.6613 201.505 30.152C201.441 30.632 201.334 31.1013 201.185 31.56C201.046 32.0187 200.865 32.4987 200.641 33H199.201C199.542 32.2427 199.787 31.528 199.937 30.856C200.097 30.1733 200.177 29.4107 200.177 28.568C200.177 27.8747 200.086 27.2987 199.905 26.84C199.723 26.3707 199.462 26.0187 199.121 25.784C198.79 25.5493 198.385 25.432 197.905 25.432C197.425 25.432 197.014 25.5493 196.673 25.784C196.342 26.0187 196.086 26.3707 195.905 26.84C195.723 27.2987 195.633 27.8747 195.633 28.568C195.633 29.1333 195.665 29.656 195.729 30.136C195.803 30.616 195.91 31.0907 196.049 31.56C196.198 32.0187 196.385 32.4987 196.609 33H195.169ZM207.492 33.16C206.265 33.16 205.327 32.7973 204.676 32.072C204.025 31.336 203.7 30.264 203.7 28.856V20.84H205.108V29C205.108 29.9067 205.295 30.632 205.668 31.176C206.041 31.72 206.649 31.992 207.492 31.992C208.025 31.992 208.463 31.8747 208.804 31.64C209.156 31.3947 209.417 31.0693 209.588 30.664C209.759 30.2587 209.844 29.8053 209.844 29.304C209.844 28.8667 209.769 28.488 209.62 28.168C209.481 27.848 209.305 27.5387 209.092 27.24C208.836 26.8667 208.596 26.4667 208.372 26.04C208.159 25.6133 208.052 25.0747 208.052 24.424H209.46C209.46 24.904 209.556 25.3253 209.748 25.688C209.94 26.04 210.164 26.3973 210.42 26.76C210.665 27.1013 210.873 27.48 211.044 27.896C211.215 28.3013 211.3 28.7867 211.3 29.352C211.3 30.12 211.14 30.792 210.82 31.368C210.5 31.9333 210.052 32.376 209.476 32.696C208.911 33.0053 208.249 33.16 207.492 33.16ZM225.112 37C224.877 36.552 224.552 36.1627 224.136 35.832C223.73 35.5013 223.293 35.2453 222.824 35.064C222.365 34.8933 221.928 34.808 221.512 34.808C221.064 34.808 220.658 34.856 220.296 34.952C219.933 35.048 219.533 35.1973 219.096 35.4L218.616 34.408C218.861 34.2907 219.144 34.184 219.464 34.088C219.784 33.992 220.189 33.9333 220.68 33.912V33.864C219.954 33.512 219.33 33.0853 218.808 32.584C218.296 32.0827 217.901 31.4907 217.624 30.808C217.357 30.1147 217.224 29.3307 217.224 28.456C217.224 27.656 217.341 26.9413 217.576 26.312C217.821 25.672 218.178 25.1707 218.648 24.808C219.128 24.4453 219.714 24.264 220.408 24.264C220.866 24.264 221.266 24.3333 221.608 24.472C221.96 24.6 222.258 24.7973 222.504 25.064C222.749 25.3307 222.93 25.6667 223.048 26.072H223.128C223.352 25.464 223.72 25.0107 224.232 24.712C224.754 24.4133 225.314 24.264 225.912 24.264C226.648 24.264 227.288 24.4347 227.832 24.776C228.386 25.1173 228.813 25.6133 229.112 26.264C229.41 26.9147 229.56 27.6987 229.56 28.616C229.56 29.3093 229.464 29.928 229.272 30.472C229.09 31.016 228.834 31.4747 228.504 31.848C228.184 32.2213 227.8 32.5093 227.352 32.712C226.914 32.904 226.44 33 225.928 33C225.373 33 224.872 32.904 224.424 32.712C223.976 32.5093 223.592 32.2213 223.272 31.848C222.952 31.4747 222.701 31.016 222.52 30.472C222.349 29.928 222.264 29.3093 222.264 28.616V27.832C222.264 27.0107 222.098 26.408 221.768 26.024C221.437 25.6293 221 25.432 220.456 25.432C220.093 25.432 219.773 25.5493 219.496 25.784C219.229 26.0187 219.021 26.36 218.872 26.808C218.733 27.2453 218.664 27.784 218.664 28.424C218.664 29.1813 218.754 29.8373 218.936 30.392C219.128 30.936 219.384 31.4053 219.704 31.8C220.034 32.184 220.408 32.5093 220.824 32.776C221.25 33.0427 221.693 33.2773 222.152 33.48C222.77 33.7467 223.336 34.0027 223.848 34.248C224.36 34.504 224.808 34.7973 225.192 35.128C225.586 35.4693 225.917 35.9013 226.184 36.424L225.112 37ZM225.896 31.832C226.408 31.832 226.824 31.6987 227.144 31.432C227.474 31.1653 227.714 30.792 227.864 30.312C228.024 29.832 228.104 29.2667 228.104 28.616C228.104 27.6347 227.928 26.8613 227.576 26.296C227.224 25.7307 226.669 25.448 225.912 25.448C225.165 25.448 224.61 25.7307 224.248 26.296C223.896 26.8613 223.72 27.6347 223.72 28.616C223.72 29.2667 223.794 29.832 223.944 30.312C224.104 30.792 224.344 31.1653 224.664 31.432C224.994 31.6987 225.405 31.832 225.896 31.832ZM234.79 33.16C234.128 33.16 233.526 33.0373 232.982 32.792C232.448 32.5467 232.022 32.184 231.702 31.704C231.392 31.224 231.238 30.6267 231.238 29.912C231.238 29.6773 231.259 29.4533 231.302 29.24C231.355 29.016 231.403 28.84 231.446 28.712H232.789C232.747 28.8507 232.71 29.0267 232.678 29.24C232.656 29.4427 232.646 29.6667 232.646 29.912C232.646 30.36 232.731 30.7387 232.902 31.048C233.083 31.3573 233.334 31.592 233.654 31.752C233.984 31.912 234.363 31.992 234.79 31.992C235.227 31.992 235.6 31.912 235.91 31.752C236.219 31.592 236.459 31.352 236.63 31.032C236.8 30.712 236.886 30.312 236.886 29.832C236.886 29.2773 236.768 28.8293 236.534 28.488C236.299 28.136 236.027 27.8107 235.718 27.512C235.462 27.256 235.206 26.9893 234.95 26.712C234.704 26.424 234.496 26.0987 234.326 25.736C234.155 25.3627 234.07 24.9253 234.07 24.424H235.478C235.478 24.8827 235.6 25.288 235.846 25.64C236.102 25.9813 236.395 26.3173 236.726 26.648C236.992 26.904 237.248 27.1813 237.494 27.48C237.739 27.7787 237.942 28.12 238.102 28.504C238.262 28.8773 238.342 29.32 238.342 29.832C238.342 30.4933 238.187 31.0747 237.878 31.576C237.568 32.0773 237.147 32.4667 236.614 32.744C236.08 33.0213 235.472 33.16 234.79 33.16ZM243.642 37C243.077 37 242.554 36.8987 242.074 36.696C241.594 36.504 241.178 36.2213 240.826 35.848C240.474 35.4853 240.197 35.0373 239.994 34.504C239.802 33.9707 239.706 33.368 239.706 32.696C239.706 31.8 239.856 31.0533 240.154 30.456C240.464 29.848 240.896 29.3733 241.45 29.032C242.005 28.6907 242.666 28.472 243.434 28.376C244.053 28.2907 244.496 28.1093 244.762 27.832C245.029 27.5547 245.162 27.208 245.162 26.792C245.162 26.376 245.029 26.04 244.762 25.784C244.496 25.5173 244.117 25.384 243.626 25.384C243.136 25.384 242.762 25.5067 242.506 25.752C242.25 25.9973 242.122 26.3333 242.122 26.76C242.122 26.8347 242.128 26.92 242.138 27.016C242.16 27.1013 242.176 27.192 242.186 27.288H240.81C240.778 27.16 240.752 27.032 240.73 26.904C240.72 26.776 240.714 26.6533 240.714 26.536C240.714 26.088 240.832 25.6933 241.066 25.352C241.312 25.0107 241.653 24.744 242.09 24.552C242.528 24.36 243.04 24.264 243.626 24.264C244.202 24.264 244.709 24.3653 245.146 24.568C245.594 24.7707 245.941 25.0533 246.186 25.416C246.442 25.7787 246.57 26.1947 246.57 26.664C246.57 27.1547 246.448 27.5867 246.202 27.96C245.957 28.3227 245.573 28.584 245.05 28.744V28.792C245.658 28.9627 246.149 29.2453 246.522 29.64C246.906 30.024 247.189 30.4827 247.37 31.016C247.552 31.5387 247.642 32.0987 247.642 32.696C247.642 33.368 247.546 33.9707 247.354 34.504C247.173 35.0373 246.906 35.4853 246.554 35.848C246.213 36.2213 245.797 36.504 245.306 36.696C244.816 36.8987 244.261 37 243.642 37ZM243.674 35.832C244.25 35.832 244.725 35.6987 245.098 35.432C245.472 35.176 245.744 34.808 245.914 34.328C246.096 33.8587 246.186 33.3147 246.186 32.696C246.186 32.0667 246.096 31.5227 245.914 31.064C245.733 30.6053 245.456 30.248 245.082 29.992C244.72 29.736 244.245 29.608 243.658 29.608C242.784 29.608 242.149 29.8907 241.754 30.456C241.36 31.0107 241.162 31.7573 241.162 32.696C241.162 33.3147 241.248 33.8587 241.418 34.328C241.6 34.808 241.877 35.176 242.25 35.432C242.624 35.6987 243.098 35.832 243.674 35.832ZM253.09 37C252.546 37 252.044 36.9093 251.586 36.728C251.138 36.5573 250.748 36.3013 250.418 35.96C250.087 35.6293 249.831 35.2293 249.65 34.76C249.479 34.3013 249.394 33.784 249.394 33.208C249.394 32.8987 249.42 32.6107 249.474 32.344C249.538 32.0667 249.607 31.8373 249.682 31.656H251.026C250.972 31.8267 250.919 32.0507 250.866 32.328C250.823 32.5947 250.802 32.8453 250.802 33.08C250.802 33.6027 250.882 34.072 251.042 34.488C251.212 34.904 251.468 35.2293 251.81 35.464C252.151 35.7093 252.578 35.832 253.09 35.832C253.644 35.832 254.087 35.7093 254.418 35.464C254.759 35.2187 255.004 34.872 255.154 34.424C255.314 33.976 255.394 33.448 255.394 32.84V27.976C255.394 27.1653 255.228 26.5413 254.898 26.104C254.567 25.656 254.055 25.432 253.362 25.432C252.946 25.432 252.578 25.512 252.258 25.672C251.948 25.832 251.703 26.0667 251.522 26.376C251.351 26.6747 251.266 27.0533 251.266 27.512C251.266 27.7467 251.276 27.9707 251.298 28.184C251.33 28.3867 251.367 28.5627 251.41 28.712H250.066C250.023 28.584 249.975 28.4133 249.922 28.2C249.879 27.976 249.858 27.7467 249.858 27.512C249.858 26.7973 250.012 26.2 250.322 25.72C250.642 25.24 251.063 24.8773 251.586 24.632C252.119 24.3867 252.711 24.264 253.362 24.264C254.055 24.264 254.658 24.408 255.17 24.696C255.692 24.984 256.092 25.4 256.37 25.944C256.658 26.4773 256.802 27.1333 256.802 27.912V32.904C256.802 33.768 256.652 34.504 256.354 35.112C256.066 35.7307 255.644 36.2 255.09 36.52C254.546 36.84 253.879 37 253.09 37ZM262.736 37C262.171 37 261.648 36.8987 261.168 36.696C260.688 36.504 260.272 36.2213 259.92 35.848C259.568 35.4853 259.291 35.0373 259.088 34.504C258.896 33.9707 258.8 33.368 258.8 32.696C258.8 31.8 258.949 31.0533 259.248 30.456C259.557 29.848 259.989 29.3733 260.544 29.032C261.099 28.6907 261.76 28.472 262.528 28.376C263.147 28.2907 263.589 28.1093 263.856 27.832C264.123 27.5547 264.256 27.208 264.256 26.792C264.256 26.376 264.123 26.04 263.856 25.784C263.589 25.5173 263.211 25.384 262.72 25.384C262.229 25.384 261.856 25.5067 261.6 25.752C261.344 25.9973 261.216 26.3333 261.216 26.76C261.216 26.8347 261.221 26.92 261.232 27.016C261.253 27.1013 261.269 27.192 261.28 27.288H259.904C259.872 27.16 259.845 27.032 259.824 26.904C259.813 26.776 259.808 26.6533 259.808 26.536C259.808 26.088 259.925 25.6933 260.16 25.352C260.405 25.0107 260.747 24.744 261.184 24.552C261.621 24.36 262.133 24.264 262.72 24.264C263.296 24.264 263.803 24.3653 264.24 24.568C264.688 24.7707 265.035 25.0533 265.28 25.416C265.536 25.7787 265.664 26.1947 265.664 26.664C265.664 27.1547 265.541 27.5867 265.296 27.96C265.051 28.3227 264.667 28.584 264.144 28.744V28.792C264.752 28.9627 265.243 29.2453 265.616 29.64C266 30.024 266.283 30.4827 266.464 31.016C266.645 31.5387 266.736 32.0987 266.736 32.696C266.736 33.368 266.64 33.9707 266.448 34.504C266.267 35.0373 266 35.4853 265.648 35.848C265.307 36.2213 264.891 36.504 264.4 36.696C263.909 36.8987 263.355 37 262.736 37ZM262.768 35.832C263.344 35.832 263.819 35.6987 264.192 35.432C264.565 35.176 264.837 34.808 265.008 34.328C265.189 33.8587 265.28 33.3147 265.28 32.696C265.28 32.0667 265.189 31.5227 265.008 31.064C264.827 30.6053 264.549 30.248 264.176 29.992C263.813 29.736 263.339 29.608 262.752 29.608C261.877 29.608 261.243 29.8907 260.848 30.456C260.453 31.0107 260.256 31.7573 260.256 32.696C260.256 33.3147 260.341 33.8587 260.512 34.328C260.693 34.808 260.971 35.176 261.344 35.432C261.717 35.6987 262.192 35.832 262.768 35.832ZM271.907 33.16C271.16 33.16 270.499 32.9947 269.923 32.664C269.347 32.3333 268.899 31.8427 268.579 31.192C268.259 30.5307 268.099 29.7093 268.099 28.728C268.099 27.3307 268.419 26.264 269.059 25.528C269.709 24.792 270.568 24.424 271.635 24.424C272.083 24.424 272.472 24.4827 272.803 24.6C273.133 24.7067 273.421 24.856 273.667 25.048C273.912 25.24 274.12 25.4533 274.291 25.688H274.387C274.376 25.5707 274.355 25.4053 274.323 25.192C274.301 24.968 274.291 24.7707 274.291 24.6V23.864C274.291 23.4693 274.216 23.1173 274.067 22.808C273.917 22.4987 273.677 22.2533 273.347 22.072C273.027 21.8907 272.605 21.8 272.083 21.8C271.677 21.8 271.32 21.864 271.011 21.992C270.701 22.1093 270.456 22.28 270.275 22.504C270.104 22.7173 270.019 22.968 270.019 23.256C270.019 23.32 270.019 23.384 270.019 23.448C270.029 23.512 270.04 23.576 270.051 23.64H268.691C268.659 23.5333 268.637 23.432 268.627 23.336C268.616 23.24 268.611 23.1493 268.611 23.064C268.611 22.5947 268.765 22.184 269.075 21.832C269.384 21.4693 269.8 21.1867 270.323 20.984C270.856 20.7813 271.443 20.68 272.083 20.68C272.84 20.68 273.485 20.8187 274.019 21.096C274.563 21.3733 274.979 21.7627 275.267 22.264C275.555 22.7547 275.699 23.3307 275.699 23.992V28.728C275.699 30.2 275.373 31.3093 274.723 32.056C274.072 32.792 273.133 33.16 271.907 33.16ZM271.907 31.992C272.781 31.992 273.4 31.72 273.763 31.176C274.125 30.632 274.307 29.9067 274.307 29V28.744C274.307 27.7627 274.131 26.9947 273.779 26.44C273.427 25.8747 272.776 25.592 271.827 25.592C271.069 25.592 270.499 25.8853 270.115 26.472C269.741 27.0587 269.555 27.8213 269.555 28.76C269.555 29.784 269.747 30.5787 270.131 31.144C270.515 31.7093 271.107 31.992 271.907 31.992ZM281.25 37C280.663 37 280.13 36.9093 279.65 36.728C279.18 36.5573 278.775 36.3173 278.434 36.008C278.103 35.6987 277.847 35.3307 277.666 34.904C277.484 34.4773 277.394 34.0187 277.394 33.528C277.394 33.2187 277.42 32.9307 277.474 32.664C277.538 32.3867 277.607 32.1573 277.682 31.976H279.026C278.972 32.1467 278.919 32.3707 278.866 32.648C278.823 32.9147 278.802 33.1653 278.802 33.4C278.802 33.816 278.887 34.2053 279.058 34.568C279.228 34.9413 279.495 35.2453 279.858 35.48C280.22 35.7147 280.684 35.832 281.25 35.832C281.794 35.832 282.242 35.7093 282.594 35.464C282.946 35.2293 283.207 34.9093 283.378 34.504C283.548 34.0987 283.634 33.6507 283.634 33.16C283.634 32.68 283.543 32.2533 283.362 31.88C283.191 31.496 282.919 31.1973 282.546 30.984C282.172 30.7707 281.698 30.664 281.122 30.664H280.498V29.496H281.234C281.991 29.496 282.535 29.288 282.866 28.872C283.196 28.4453 283.362 27.944 283.362 27.368C283.362 27.016 283.282 26.696 283.122 26.408C282.972 26.1093 282.748 25.8747 282.45 25.704C282.151 25.5227 281.783 25.432 281.346 25.432C280.898 25.432 280.524 25.512 280.226 25.672C279.927 25.8213 279.698 26.0347 279.538 26.312C279.388 26.5893 279.314 26.9253 279.314 27.32C279.314 27.4587 279.324 27.6027 279.346 27.752C279.367 27.9013 279.399 28.0613 279.442 28.232H278.066C278.012 28.0507 277.97 27.8747 277.938 27.704C277.916 27.5333 277.906 27.368 277.906 27.208C277.906 26.6427 278.05 26.1413 278.338 25.704C278.636 25.256 279.042 24.904 279.554 24.648C280.076 24.392 280.674 24.264 281.346 24.264C282.018 24.264 282.61 24.3973 283.122 24.664C283.644 24.9307 284.05 25.2933 284.338 25.752C284.626 26.2 284.77 26.7067 284.77 27.272C284.77 28.0187 284.562 28.632 284.146 29.112C283.74 29.5813 283.202 29.8907 282.53 30.04V30.104C282.978 30.168 283.394 30.328 283.778 30.584C284.172 30.84 284.487 31.1867 284.722 31.624C284.967 32.0613 285.09 32.5947 285.09 33.224C285.09 33.9813 284.93 34.6427 284.61 35.208C284.29 35.784 283.842 36.2267 283.266 36.536C282.7 36.8453 282.028 37 281.25 37ZM289.93 33.16C289.269 33.16 288.666 33.0373 288.122 32.792C287.589 32.5467 287.162 32.184 286.842 31.704C286.533 31.224 286.378 30.6267 286.378 29.912C286.378 29.6773 286.399 29.4533 286.442 29.24C286.495 29.016 286.543 28.84 286.586 28.712H287.93C287.887 28.8507 287.85 29.0267 287.818 29.24C287.797 29.4427 287.786 29.6667 287.786 29.912C287.786 30.36 287.871 30.7387 288.042 31.048C288.223 31.3573 288.474 31.592 288.794 31.752C289.125 31.912 289.503 31.992 289.93 31.992C290.367 31.992 290.741 31.912 291.05 31.752C291.359 31.592 291.599 31.352 291.77 31.032C291.941 30.712 292.026 30.312 292.026 29.832C292.026 29.2773 291.909 28.8293 291.674 28.488C291.439 28.136 291.167 27.8107 290.858 27.512C290.602 27.256 290.346 26.9893 290.09 26.712C289.845 26.424 289.637 26.0987 289.466 25.736C289.295 25.3627 289.21 24.9253 289.21 24.424H290.618C290.618 24.8827 290.741 25.288 290.986 25.64C291.242 25.9813 291.535 26.3173 291.866 26.648C292.133 26.904 292.389 27.1813 292.634 27.48C292.879 27.7787 293.082 28.12 293.242 28.504C293.402 28.8773 293.482 29.32 293.482 29.832C293.482 30.4933 293.327 31.0747 293.018 31.576C292.709 32.0773 292.287 32.4667 291.754 32.744C291.221 33.0213 290.613 33.16 289.93 33.16ZM303.252 37C302.686 37 302.164 36.8987 301.684 36.696C301.204 36.504 300.788 36.2213 300.436 35.848C300.084 35.4853 299.806 35.0373 299.604 34.504C299.412 33.9707 299.316 33.368 299.316 32.696C299.316 31.8 299.465 31.0533 299.764 30.456C300.073 29.848 300.505 29.3733 301.06 29.032C301.614 28.6907 302.276 28.472 303.044 28.376C303.662 28.2907 304.105 28.1093 304.372 27.832C304.638 27.5547 304.772 27.208 304.772 26.792C304.772 26.376 304.638 26.04 304.372 25.784C304.105 25.5173 303.726 25.384 303.236 25.384C302.745 25.384 302.372 25.5067 302.116 25.752C301.86 25.9973 301.732 26.3333 301.732 26.76C301.732 26.8347 301.737 26.92 301.748 27.016C301.769 27.1013 301.785 27.192 301.796 27.288H300.42C300.388 27.16 300.361 27.032 300.34 26.904C300.329 26.776 300.324 26.6533 300.324 26.536C300.324 26.088 300.441 25.6933 300.676 25.352C300.921 25.0107 301.262 24.744 301.7 24.552C302.137 24.36 302.649 24.264 303.236 24.264C303.812 24.264 304.318 24.3653 304.756 24.568C305.204 24.7707 305.55 25.0533 305.796 25.416C306.052 25.7787 306.18 26.1947 306.18 26.664C306.18 27.1547 306.057 27.5867 305.812 27.96C305.566 28.3227 305.182 28.584 304.66 28.744V28.792C305.268 28.9627 305.758 29.2453 306.132 29.64C306.516 30.024 306.798 30.4827 306.98 31.016C307.161 31.5387 307.252 32.0987 307.252 32.696C307.252 33.368 307.156 33.9707 306.964 34.504C306.782 35.0373 306.516 35.4853 306.164 35.848C305.822 36.2213 305.406 36.504 304.916 36.696C304.425 36.8987 303.87 37 303.252 37ZM303.284 35.832C303.86 35.832 304.334 35.6987 304.708 35.432C305.081 35.176 305.353 34.808 305.524 34.328C305.705 33.8587 305.796 33.3147 305.796 32.696C305.796 32.0667 305.705 31.5227 305.524 31.064C305.342 30.6053 305.065 30.248 304.692 29.992C304.329 29.736 303.854 29.608 303.268 29.608C302.393 29.608 301.758 29.8907 301.364 30.456C300.969 31.0107 300.772 31.7573 300.772 32.696C300.772 33.3147 300.857 33.8587 301.028 34.328C301.209 34.808 301.486 35.176 301.86 35.432C302.233 35.6987 302.708 35.832 303.284 35.832ZM312.726 33.16C311.5 33.16 310.561 32.7973 309.91 32.072C309.26 31.336 308.934 30.264 308.934 28.856V20.84H310.342V29C310.342 29.9067 310.529 30.632 310.902 31.176C311.276 31.72 311.884 31.992 312.726 31.992C313.26 31.992 313.697 31.8747 314.038 31.64C314.39 31.3947 314.652 31.0693 314.822 30.664C314.993 30.2587 315.078 29.8053 315.078 29.304C315.078 28.8667 315.004 28.488 314.854 28.168C314.716 27.848 314.54 27.5387 314.326 27.24C314.07 26.8667 313.83 26.4667 313.606 26.04C313.393 25.6133 313.286 25.0747 313.286 24.424H314.694C314.694 24.904 314.79 25.3253 314.982 25.688C315.174 26.04 315.398 26.3973 315.654 26.76C315.9 27.1013 316.108 27.48 316.278 27.896C316.449 28.3013 316.534 28.7867 316.534 29.352C316.534 30.12 316.374 30.792 316.054 31.368C315.734 31.9333 315.286 32.376 314.71 32.696C314.145 33.0053 313.484 33.16 312.726 33.16ZM321.861 37C321.275 37 320.741 36.9093 320.261 36.728C319.792 36.5573 319.387 36.3013 319.045 35.96C318.715 35.6293 318.459 35.2293 318.277 34.76C318.096 34.3013 318.005 33.784 318.005 33.208C318.005 32.8987 318.032 32.6107 318.085 32.344C318.149 32.0667 318.219 31.8373 318.293 31.656H319.637C319.584 31.8267 319.531 32.0507 319.477 32.328C319.435 32.5947 319.413 32.8453 319.413 33.08C319.413 33.6027 319.499 34.072 319.669 34.488C319.84 34.904 320.107 35.2293 320.469 35.464C320.832 35.7093 321.296 35.832 321.861 35.832C322.416 35.832 322.859 35.7093 323.189 35.464C323.531 35.2187 323.776 34.872 323.925 34.424C324.085 33.976 324.165 33.448 324.165 32.84V27.192C324.165 26.6267 324.059 26.1947 323.845 25.896C323.643 25.5867 323.323 25.432 322.885 25.432C322.48 25.432 322.165 25.5867 321.941 25.896C321.728 26.1947 321.621 26.616 321.621 27.16V29.224H320.277V27.192C320.277 26.6267 320.165 26.2053 319.941 25.928C319.717 25.6507 319.392 25.512 318.965 25.512H317.765V24.344H318.917C319.44 24.344 319.867 24.456 320.197 24.68C320.539 24.8933 320.784 25.2507 320.933 25.752H320.997C321.179 25.2507 321.44 24.8773 321.781 24.632C322.133 24.3867 322.56 24.264 323.061 24.264C323.584 24.264 324.032 24.3813 324.405 24.616C324.779 24.84 325.067 25.1547 325.269 25.56C325.472 25.9653 325.573 26.4293 325.573 26.952V32.904C325.573 33.768 325.424 34.504 325.125 35.112C324.837 35.7307 324.416 36.2 323.861 36.52C323.317 36.84 322.651 37 321.861 37ZM328.59 33C328.376 32.4987 328.195 32.0187 328.046 31.56C327.907 31.1013 327.806 30.632 327.742 30.152C327.678 29.6613 327.646 29.1387 327.646 28.584V27.976C327.646 26.6533 327.8 25.5387 328.11 24.632C328.419 23.7147 328.888 22.9893 329.518 22.456C330.147 21.912 330.936 21.5387 331.886 21.336C332.483 21.208 333.08 21.0907 333.678 20.984C334.275 20.8773 334.862 20.776 335.438 20.68L335.678 21.912C335.4 21.9547 335.096 22.0027 334.766 22.056C334.446 22.0987 334.126 22.1467 333.806 22.2C333.486 22.2533 333.182 22.3067 332.894 22.36C332.616 22.4027 332.371 22.4507 332.158 22.504C331.72 22.6 331.294 22.7493 330.878 22.952C330.462 23.144 330.088 23.4267 329.758 23.8C329.438 24.1733 329.176 24.6853 328.974 25.336H329.022C329.235 25.0373 329.443 24.8133 329.646 24.664C329.859 24.504 330.072 24.3973 330.286 24.344C330.51 24.2907 330.734 24.264 330.958 24.264C331.502 24.264 331.955 24.4027 332.318 24.68C332.68 24.9467 332.947 25.3147 333.118 25.784H333.198C333.379 25.3147 333.662 24.9467 334.046 24.68C334.43 24.4027 334.904 24.264 335.47 24.264C336.184 24.264 336.782 24.4453 337.262 24.808C337.742 25.1707 338.104 25.6773 338.35 26.328C338.595 26.968 338.718 27.72 338.718 28.584C338.718 29.1387 338.68 29.6613 338.606 30.152C338.542 30.632 338.435 31.1013 338.286 31.56C338.147 32.0187 337.966 32.4987 337.742 33H336.302C336.643 32.2427 336.888 31.528 337.038 30.856C337.198 30.1733 337.278 29.4107 337.278 28.568C337.278 27.8747 337.203 27.2987 337.054 26.84C336.904 26.3707 336.686 26.0187 336.398 25.784C336.12 25.5493 335.774 25.432 335.358 25.432C334.878 25.432 334.504 25.6133 334.238 25.976C333.971 26.3387 333.838 26.8507 333.838 27.512V30.088H332.494V27.512C332.494 26.9147 332.371 26.4187 332.126 26.024C331.88 25.6293 331.491 25.432 330.958 25.432C330.35 25.432 329.88 25.6987 329.55 26.232C329.219 26.7547 329.054 27.5333 329.054 28.568C329.054 29.1333 329.086 29.656 329.15 30.136C329.224 30.616 329.331 31.0907 329.47 31.56C329.619 32.0187 329.806 32.4987 330.03 33H328.59ZM344.586 33.16C343.359 33.16 342.42 32.7973 341.77 32.072C341.119 31.336 340.794 30.264 340.794 28.856V20.84H342.202V29C342.202 29.9067 342.388 30.632 342.762 31.176C343.135 31.72 343.743 31.992 344.586 31.992C345.119 31.992 345.556 31.8747 345.898 31.64C346.25 31.3947 346.511 31.0693 346.682 30.664C346.852 30.2587 346.938 29.8053 346.938 29.304C346.938 28.8667 346.863 28.488 346.714 28.168C346.575 27.848 346.399 27.5387 346.186 27.24C345.93 26.8667 345.69 26.4667 345.466 26.04C345.252 25.6133 345.146 25.0747 345.146 24.424H346.554C346.554 24.904 346.65 25.3253 346.842 25.688C347.034 26.04 347.258 26.3973 347.514 26.76C347.759 27.1013 347.967 27.48 348.138 27.896C348.308 28.3013 348.394 28.7867 348.394 29.352C348.394 30.12 348.234 30.792 347.914 31.368C347.594 31.9333 347.146 32.376 346.57 32.696C346.004 33.0053 345.343 33.16 344.586 33.16ZM351.521 29.352C351.521 28.9467 351.559 28.6 351.633 28.312C351.719 28.0133 351.857 27.7307 352.049 27.464C352.252 27.1973 352.524 26.92 352.865 26.632C353.281 26.28 353.601 25.9867 353.825 25.752C354.06 25.5173 354.225 25.288 354.321 25.064C354.417 24.84 354.465 24.568 354.465 24.248C354.465 23.736 354.3 23.3413 353.969 23.064C353.639 22.7867 353.159 22.648 352.529 22.648C352.007 22.648 351.543 22.7173 351.137 22.856C350.732 22.984 350.343 23.1387 349.969 23.32L349.473 22.2C349.9 21.976 350.369 21.7893 350.881 21.64C351.404 21.4907 351.985 21.416 352.625 21.416C353.639 21.416 354.423 21.6667 354.977 22.168C355.532 22.6693 355.809 23.352 355.809 24.216C355.809 24.696 355.729 25.1067 355.569 25.448C355.42 25.7787 355.201 26.088 354.913 26.376C354.636 26.6533 354.305 26.952 353.921 27.272C353.569 27.5707 353.297 27.832 353.105 28.056C352.924 28.28 352.801 28.504 352.737 28.728C352.673 28.9413 352.641 29.2027 352.641 29.512V29.784H351.521V29.352ZM351.153 32.136C351.153 31.7413 351.244 31.464 351.425 31.304C351.617 31.144 351.857 31.064 352.145 31.064C352.412 31.064 352.641 31.144 352.833 31.304C353.025 31.464 353.121 31.7413 353.121 32.136C353.121 32.52 353.025 32.7973 352.833 32.968C352.641 33.1387 352.412 33.224 352.145 33.224C351.857 33.224 351.617 33.1387 351.425 32.968C351.244 32.7973 351.153 32.52 351.153 32.136Z" fill="#808080"/>
<rect x="606" y="1" width="130" height="52" rx="8" fill="#1E6F9F"/>
<path d="M629.686 35.5C629.453 35.1267 629.168 34.8187 628.832 34.576C628.505 34.3427 628.165 34.1653 627.81 34.044C627.455 33.932 627.119 33.876 626.802 33.876C626.419 33.876 626.046 33.9273 625.682 34.03C625.327 34.1327 624.987 34.2727 624.66 34.45L624.03 33.106C624.207 33.0313 624.417 32.952 624.66 32.868C624.903 32.7933 625.225 32.7373 625.626 32.7V32.644C625.019 32.364 624.492 32.0047 624.044 31.566C623.596 31.118 623.246 30.5953 622.994 29.998C622.751 29.4007 622.63 28.7427 622.63 28.024C622.63 27.296 622.747 26.6473 622.98 26.078C623.213 25.4993 623.554 25.0467 624.002 24.72C624.459 24.384 625.015 24.216 625.668 24.216C626.088 24.216 626.457 24.272 626.774 24.384C627.091 24.496 627.362 24.664 627.586 24.888C627.819 25.1027 627.997 25.3733 628.118 25.7H628.188C628.384 25.2147 628.706 24.846 629.154 24.594C629.602 24.342 630.111 24.216 630.68 24.216C631.371 24.216 631.973 24.37 632.486 24.678C632.999 24.9767 633.401 25.4107 633.69 25.98C633.979 26.5493 634.124 27.24 634.124 28.052C634.124 28.6587 634.035 29.2047 633.858 29.69C633.69 30.166 633.447 30.572 633.13 30.908C632.822 31.2347 632.453 31.4867 632.024 31.664C631.604 31.832 631.142 31.916 630.638 31.916C630.097 31.916 629.607 31.832 629.168 31.664C628.739 31.4867 628.37 31.2347 628.062 30.908C627.754 30.5813 627.516 30.1847 627.348 29.718C627.189 29.242 627.11 28.7053 627.11 28.108V27.618C627.11 27.0767 627.012 26.6567 626.816 26.358C626.629 26.05 626.331 25.896 625.92 25.896C625.64 25.896 625.411 25.9893 625.234 26.176C625.066 26.3533 624.94 26.6007 624.856 26.918C624.772 27.2353 624.73 27.5993 624.73 28.01C624.73 28.5887 624.805 29.102 624.954 29.55C625.113 29.998 625.327 30.39 625.598 30.726C625.878 31.062 626.2 31.3513 626.564 31.594C626.928 31.8367 627.325 32.042 627.754 32.21C628.342 32.4433 628.855 32.6767 629.294 32.91C629.733 33.1433 630.106 33.4047 630.414 33.694C630.731 33.9833 630.993 34.3333 631.198 34.744L629.686 35.5ZM630.61 30.236C630.946 30.236 631.212 30.1473 631.408 29.97C631.613 29.7833 631.763 29.5267 631.856 29.2C631.949 28.8733 631.996 28.4907 631.996 28.052C631.996 27.3893 631.889 26.8667 631.674 26.484C631.469 26.092 631.119 25.896 630.624 25.896C630.129 25.896 629.775 26.092 629.56 26.484C629.345 26.8667 629.238 27.3893 629.238 28.052C629.238 28.4907 629.285 28.8733 629.378 29.2C629.471 29.5267 629.616 29.7833 629.812 29.97C630.017 30.1473 630.283 30.236 630.61 30.236ZM638.788 32.14C638.116 32.14 637.519 32.028 636.996 31.804C636.473 31.5707 636.063 31.2347 635.764 30.796C635.465 30.3573 635.316 29.8207 635.316 29.186C635.316 28.9247 635.335 28.7007 635.372 28.514C635.419 28.318 635.475 28.1313 635.54 27.954H637.542C637.505 28.122 637.472 28.2993 637.444 28.486C637.416 28.6633 637.402 28.8453 637.402 29.032C637.402 29.284 637.453 29.522 637.556 29.746C637.668 29.9607 637.827 30.1333 638.032 30.264C638.237 30.3947 638.489 30.46 638.788 30.46C639.077 30.46 639.32 30.3947 639.516 30.264C639.721 30.1333 639.875 29.9653 639.978 29.76C640.09 29.5453 640.146 29.312 640.146 29.06C640.146 28.6307 640.034 28.2807 639.81 28.01C639.586 27.73 639.329 27.4593 639.04 27.198C638.816 26.9833 638.592 26.7547 638.368 26.512C638.144 26.26 637.957 25.9613 637.808 25.616C637.659 25.2707 637.584 24.8507 637.584 24.356H639.67C639.67 24.7387 639.787 25.0747 640.02 25.364C640.253 25.6533 640.519 25.9427 640.818 26.232C641.051 26.456 641.28 26.6987 641.504 26.96C641.728 27.212 641.91 27.506 642.05 27.842C642.199 28.178 642.274 28.5747 642.274 29.032C642.274 29.648 642.129 30.1893 641.84 30.656C641.551 31.1227 641.145 31.4867 640.622 31.748C640.109 32.0093 639.497 32.14 638.788 32.14ZM647.174 32.14C646.428 32.14 645.779 31.9907 645.228 31.692C644.687 31.3933 644.267 30.9593 643.968 30.39C643.679 29.8113 643.534 29.1207 643.534 28.318C643.534 27.0953 643.805 26.1713 644.346 25.546C644.888 24.9207 645.597 24.608 646.474 24.608C646.838 24.608 647.156 24.65 647.426 24.734C647.697 24.818 647.926 24.9393 648.112 25.098C648.308 25.2473 648.476 25.4293 648.616 25.644H648.686C648.658 25.4853 648.63 25.3173 648.602 25.14C648.584 24.9627 648.574 24.7667 648.574 24.552V24.006C648.574 23.7633 648.528 23.5487 648.434 23.362C648.35 23.166 648.21 23.012 648.014 22.9C647.828 22.7787 647.585 22.718 647.286 22.718C647.034 22.718 646.82 22.76 646.642 22.844C646.465 22.928 646.325 23.0447 646.222 23.194C646.129 23.3433 646.082 23.5113 646.082 23.698C646.082 23.7447 646.082 23.7913 646.082 23.838C646.092 23.8847 646.101 23.9313 646.11 23.978H644.066C644.038 23.8847 644.02 23.796 644.01 23.712C644.001 23.6187 643.996 23.5347 643.996 23.46C643.996 22.9933 644.141 22.592 644.43 22.256C644.729 21.92 645.126 21.6633 645.62 21.486C646.115 21.3087 646.67 21.22 647.286 21.22C647.986 21.22 648.588 21.3507 649.092 21.612C649.606 21.864 649.998 22.2187 650.268 22.676C650.539 23.1333 650.674 23.6607 650.674 24.258V28.318C650.674 29.5313 650.371 30.474 649.764 31.146C649.167 31.8087 648.304 32.14 647.174 32.14ZM647.174 30.46C647.697 30.46 648.084 30.2827 648.336 29.928C648.588 29.564 648.714 29.0973 648.714 28.528V28.248C648.714 27.6413 648.602 27.1513 648.378 26.778C648.154 26.4047 647.739 26.218 647.132 26.218C646.666 26.218 646.302 26.4093 646.04 26.792C645.788 27.1747 645.662 27.6973 645.662 28.36C645.662 28.9667 645.774 29.4707 645.998 29.872C646.232 30.264 646.624 30.46 647.174 30.46ZM655.55 32.14C654.878 32.14 654.28 32.028 653.758 31.804C653.235 31.5707 652.824 31.2347 652.526 30.796C652.227 30.3573 652.078 29.8207 652.078 29.186C652.078 28.9247 652.096 28.7007 652.134 28.514C652.18 28.318 652.236 28.1313 652.302 27.954H654.304C654.266 28.122 654.234 28.2993 654.206 28.486C654.178 28.6633 654.164 28.8453 654.164 29.032C654.164 29.284 654.215 29.522 654.318 29.746C654.43 29.9607 654.588 30.1333 654.794 30.264C654.999 30.3947 655.251 30.46 655.55 30.46C655.839 30.46 656.082 30.3947 656.278 30.264C656.483 30.1333 656.637 29.9653 656.74 29.76C656.852 29.5453 656.908 29.312 656.908 29.06C656.908 28.6307 656.796 28.2807 656.572 28.01C656.348 27.73 656.091 27.4593 655.802 27.198C655.578 26.9833 655.354 26.7547 655.13 26.512C654.906 26.26 654.719 25.9613 654.57 25.616C654.42 25.2707 654.346 24.8507 654.346 24.356H656.432C656.432 24.7387 656.548 25.0747 656.782 25.364C657.015 25.6533 657.281 25.9427 657.58 26.232C657.813 26.456 658.042 26.6987 658.266 26.96C658.49 27.212 658.672 27.506 658.812 27.842C658.961 28.178 659.036 28.5747 659.036 29.032C659.036 29.648 658.891 30.1893 658.602 30.656C658.312 31.1227 657.906 31.4867 657.384 31.748C656.87 32.0093 656.259 32.14 655.55 32.14ZM665.098 35.5C664.333 35.5 663.651 35.374 663.054 35.122C662.457 34.87 661.953 34.5013 661.542 34.016C661.131 33.5307 660.819 32.924 660.604 32.196C660.399 31.4773 660.296 30.6513 660.296 29.718C660.296 28.6913 660.445 27.8 660.744 27.044C661.043 26.288 661.481 25.6767 662.06 25.21C662.648 24.7433 663.362 24.44 664.202 24.3C664.174 24.1227 664.146 23.9453 664.118 23.768C664.099 23.5907 664.09 23.4227 664.09 23.264V22.606H666.078V23.264C666.078 23.4133 666.064 23.5813 666.036 23.768C666.017 23.9453 665.994 24.118 665.966 24.286C666.825 24.4167 667.548 24.7153 668.136 25.182C668.724 25.6487 669.167 26.2693 669.466 27.044C669.765 27.8093 669.914 28.7053 669.914 29.732C669.914 30.6373 669.811 31.4447 669.606 32.154C669.401 32.8727 669.093 33.4793 668.682 33.974C668.271 34.4687 667.767 34.8467 667.17 35.108C666.573 35.3693 665.882 35.5 665.098 35.5ZM665.098 33.82C665.686 33.82 666.176 33.6707 666.568 33.372C666.969 33.0827 667.273 32.6347 667.478 32.028C667.683 31.4307 667.786 30.6653 667.786 29.732C667.786 28.9573 667.716 28.304 667.576 27.772C667.436 27.2307 667.231 26.8013 666.96 26.484C666.689 26.1573 666.358 25.938 665.966 25.826C665.994 26.0127 666.017 26.2133 666.036 26.428C666.064 26.6427 666.078 26.904 666.078 27.212V29.62H664.09V27.198C664.09 26.8993 664.099 26.6473 664.118 26.442C664.146 26.2367 664.174 26.0453 664.202 25.868C663.819 25.9613 663.493 26.1713 663.222 26.498C662.951 26.8153 662.746 27.2447 662.606 27.786C662.475 28.3273 662.41 28.976 662.41 29.732C662.41 30.656 662.513 31.4213 662.718 32.028C662.933 32.6347 663.241 33.0827 663.642 33.372C664.043 33.6707 664.529 33.82 665.098 33.82ZM674.637 35.5C674.095 35.5 673.605 35.416 673.167 35.248C672.728 35.0893 672.355 34.856 672.047 34.548C671.748 34.2493 671.515 33.89 671.347 33.47C671.188 33.0593 671.109 32.602 671.109 32.098C671.109 31.8273 671.132 31.5753 671.179 31.342C671.235 31.0993 671.309 30.8707 671.403 30.656H673.363C673.316 30.8427 673.274 31.0527 673.237 31.286C673.209 31.5193 673.195 31.7387 673.195 31.944C673.195 32.28 673.246 32.588 673.349 32.868C673.451 33.1573 673.605 33.386 673.811 33.554C674.025 33.7313 674.301 33.82 674.637 33.82C675.001 33.82 675.285 33.736 675.491 33.568C675.705 33.4 675.855 33.162 675.939 32.854C676.032 32.5553 676.079 32.2007 676.079 31.79V27.534C676.079 27.0113 675.976 26.61 675.771 26.33C675.565 26.0407 675.248 25.896 674.819 25.896C674.557 25.896 674.329 25.952 674.133 26.064C673.937 26.1667 673.787 26.3207 673.685 26.526C673.582 26.7313 673.531 26.9833 673.531 27.282C673.531 27.4593 673.54 27.6367 673.559 27.814C673.577 27.9913 673.615 28.1873 673.671 28.402H671.669C671.603 28.2153 671.547 28.0287 671.501 27.842C671.463 27.6553 671.445 27.4313 671.445 27.17C671.445 26.5353 671.589 25.9987 671.879 25.56C672.177 25.1213 672.579 24.79 673.083 24.566C673.596 24.3327 674.165 24.216 674.791 24.216C675.481 24.216 676.079 24.3513 676.583 24.622C677.087 24.8833 677.474 25.2613 677.745 25.756C678.025 26.2507 678.165 26.8433 678.165 27.534V31.832C678.165 32.5973 678.025 33.2553 677.745 33.806C677.474 34.3567 677.077 34.7767 676.555 35.066C676.032 35.3553 675.393 35.5 674.637 35.5ZM684.458 24.356C684.971 24.4867 685.419 24.72 685.802 25.056C686.194 25.392 686.497 25.8213 686.712 26.344C686.927 26.8667 687.034 27.4733 687.034 28.164C687.034 28.7987 686.945 29.3633 686.768 29.858C686.6 30.3527 686.353 30.7727 686.026 31.118C685.709 31.454 685.321 31.7107 684.864 31.888C684.407 32.056 683.889 32.14 683.31 32.14C682.778 32.14 682.283 32.056 681.826 31.888C681.378 31.7107 680.991 31.454 680.664 31.118C680.337 30.7727 680.081 30.3527 679.894 29.858C679.717 29.3633 679.628 28.7987 679.628 28.164C679.628 27.4267 679.74 26.792 679.964 26.26C680.197 25.7187 680.529 25.28 680.958 24.944C681.387 24.608 681.901 24.3887 682.498 24.286C682.545 24.2113 682.577 24.132 682.596 24.048C682.624 23.9547 682.638 23.8473 682.638 23.726C682.638 23.5393 682.587 23.3807 682.484 23.25C682.391 23.1193 682.274 22.998 682.134 22.886C681.957 22.746 681.784 22.5687 681.616 22.354C681.457 22.13 681.378 21.7987 681.378 21.36H683.338C683.347 21.5653 683.413 21.7427 683.534 21.892C683.655 22.032 683.795 22.172 683.954 22.312C684.131 22.4613 684.29 22.634 684.43 22.83C684.57 23.0167 684.64 23.2593 684.64 23.558C684.64 23.7073 684.621 23.852 684.584 23.992C684.556 24.1227 684.514 24.244 684.458 24.356ZM683.338 30.474C683.711 30.474 684.01 30.3807 684.234 30.194C684.467 30.0073 684.635 29.7413 684.738 29.396C684.85 29.0507 684.906 28.64 684.906 28.164C684.906 27.688 684.85 27.282 684.738 26.946C684.635 26.6007 684.467 26.3393 684.234 26.162C684.001 25.9847 683.697 25.896 683.324 25.896C682.773 25.896 682.372 26.0967 682.12 26.498C681.877 26.89 681.756 27.4453 681.756 28.164C681.756 28.64 681.807 29.0507 681.91 29.396C682.022 29.7413 682.195 30.0073 682.428 30.194C682.661 30.3807 682.965 30.474 683.338 30.474ZM691.698 32.14C691.026 32.14 690.429 32.028 689.906 31.804C689.383 31.5707 688.973 31.2347 688.674 30.796C688.375 30.3573 688.226 29.8207 688.226 29.186C688.226 28.9247 688.245 28.7007 688.282 28.514C688.329 28.318 688.385 28.1313 688.45 27.954H690.452C690.415 28.122 690.382 28.2993 690.354 28.486C690.326 28.6633 690.312 28.8453 690.312 29.032C690.312 29.284 690.363 29.522 690.466 29.746C690.578 29.9607 690.737 30.1333 690.942 30.264C691.147 30.3947 691.399 30.46 691.698 30.46C691.987 30.46 692.23 30.3947 692.426 30.264C692.631 30.1333 692.785 29.9653 692.888 29.76C693 29.5453 693.056 29.312 693.056 29.06C693.056 28.6307 692.944 28.2807 692.72 28.01C692.496 27.73 692.239 27.4593 691.95 27.198C691.726 26.9833 691.502 26.7547 691.278 26.512C691.054 26.26 690.867 25.9613 690.718 25.616C690.569 25.2707 690.494 24.8507 690.494 24.356H692.58C692.58 24.7387 692.697 25.0747 692.93 25.364C693.163 25.6533 693.429 25.9427 693.728 26.232C693.961 26.456 694.19 26.6987 694.414 26.96C694.638 27.212 694.82 27.506 694.96 27.842C695.109 28.178 695.184 28.5747 695.184 29.032C695.184 29.648 695.039 30.1893 694.75 30.656C694.461 31.1227 694.055 31.4867 693.532 31.748C693.019 32.0093 692.407 32.14 691.698 32.14Z" fill="#F2F2F2"/>
<g clip-path="url(#clip0_43_106)">
<path d="M711.984 20.4516C713.276 20.4516 714.539 20.8347 715.613 21.5524C716.687 22.2702 717.524 23.2904 718.019 24.484C718.513 25.6775 718.642 26.9909 718.39 28.258C718.138 29.5251 717.516 30.689 716.603 31.6026C715.689 32.5161 714.525 33.1382 713.258 33.3903C711.991 33.6423 710.678 33.5129 709.484 33.0185C708.29 32.5241 707.27 31.6869 706.552 30.6127C705.835 29.5385 705.452 28.2756 705.452 26.9837C705.458 25.2533 706.149 23.5957 707.372 22.3722C708.596 21.1486 710.253 20.4583 711.984 20.4516ZM711.984 19C710.406 19.0065 708.866 19.4802 707.557 20.3613C706.249 21.2425 705.23 22.4916 704.631 23.951C704.032 25.4104 703.878 27.0146 704.19 28.5611C704.502 30.1077 705.265 31.5272 706.383 32.6404C707.5 33.7537 708.923 34.5108 710.471 34.8162C712.019 35.1217 713.622 34.9617 715.079 34.3564C716.536 33.7512 717.781 32.7279 718.657 31.4158C719.533 30.1036 720 28.5613 720 26.9837C720 25.9325 719.792 24.8917 719.389 23.9209C718.986 22.9501 718.395 22.0686 717.65 21.3268C716.905 20.585 716.021 19.9976 715.049 19.5983C714.077 19.199 713.035 18.9957 711.984 19Z" fill="#F2F2F2"/>
<path d="M715.707 26.3813H712.495V23.1697H711.414V26.3813H708.199V27.4627H711.414V30.6743H712.495V27.4627H715.707V26.3813Z" fill="#F2F2F2"/>
</g>
<defs>
<clipPath id="clip0_43_106">
<rect width="16" height="16" fill="white" transform="translate(704 19)"/>
</clipPath>
</defs>
</svg>
